<svg xmlns="http://www.w3.org/2000/svg" width="44" height="34" viewBox="0 0 44 34">
    <defs>
        <linearGradient id="a" x1="30.117%" x2="80.477%" y1="-20.216%" y2="120.457%">
            <stop offset="0%" stop-color="#FA9F9B"/>
            <stop offset="100%" stop-color="#982C61"/>
        </linearGradient>
    </defs>
    <path fill="url(#a)" fill-rule="evenodd" d="M5.534 23.667a1.289 1.289 0 0 1 1.823 0l1.666 1.666 4.245-4.244a1.289 1.289 0 1 1 1.823 1.822l-5.156 5.157a1.289 1.289 0 0 1-1.823 0l-2.578-2.579a1.288 1.288 0 0 1 0-1.822zm0-7.735a1.289 1.289 0 0 1 1.823 0L9.023 17.6l4.245-4.245a1.289 1.289 0 1 1 1.823 1.823l-5.156 5.156a1.289 1.289 0 0 1-1.823 0l-2.578-2.578a1.288 1.288 0 0 1 0-1.823zm0-7.734a1.289 1.289 0 0 1 1.823 0l1.666 1.667 4.245-4.245a1.289 1.289 0 1 1 1.823 1.823l-5.156 5.156a1.289 1.289 0 0 1-1.823 0L5.534 10.02a1.288 1.288 0 0 1 0-1.823zm13.802 15.091h18.219a1.288 1.288 0 1 1 0 2.578h-18.22a1.288 1.288 0 1 1 0-2.578zm0-7.734h18.219a1.288 1.288 0 1 1 0 2.578h-18.22a1.288 1.288 0 1 1 0-2.578zm0-7.735h18.219a1.288 1.288 0 1 1 0 2.578h-18.22a1.288 1.288 0 1 1 0-2.578zm9.11 25.867h11.687A3.871 3.871 0 0 0 44 29.82V3.867A3.871 3.871 0 0 0 40.133 0H3.867A3.871 3.871 0 0 0 0 3.867V29.82a3.871 3.871 0 0 0 3.867 3.867h24.578z"/>
</svg>
