<svg xmlns="http://www.w3.org/2000/svg" width="40" height="41" viewBox="0 0 40 41">
    <defs>
        <linearGradient id="a" x1="100%" x2="76.357%" y1="0%" y2="114.877%">
            <stop offset="0%" stop-color="#5ECBFA"/>
            <stop offset="100%" stop-color="#5154D3"/>
        </linearGradient>
    </defs>
    <path fill="url(#a)" fill-rule="evenodd" d="M37.927.018L12.504 3.707c-.895.13-1.56.907-1.56 1.825v21.62a7.157 7.157 0 0 0-3.656-1.002C3.27 26.15 0 29.47 0 33.551c0 4.081 3.27 7.401 7.288 7.401 4.019 0 7.289-3.32 7.289-7.4V14.507l21.791-3.161v12.118a7.158 7.158 0 0 0-3.656-1.003c-4.019 0-7.289 3.32-7.289 7.401 0 4.081 3.27 7.401 7.289 7.401 4.018 0 7.288-3.32 7.288-7.4V1.843c0-.535-.228-1.043-.626-1.393a1.798 1.798 0 0 0-1.447-.433z"/>
</svg>
