<svg xmlns="http://www.w3.org/2000/svg" xmlns:xlink="http://www.w3.org/1999/xlink" width="40" height="40" viewBox="0 0 40 40">
    <defs>
        <path id="a" d="M.147.098H39.07V39.07H.147z"/>
        <linearGradient id="b" x1="66.008%" x2="66.008%" y1="-16.036%" y2="100%">
            <stop offset="0%" stop-color="#3C27B1"/>
            <stop offset="100%" stop-color="#B665D2"/>
        </linearGradient>
    </defs>
    <g fill="none" fill-rule="evenodd" transform="translate(0 .5)">
        <mask id="c" fill="#fff">
            <use xlink:href="#a"/>
        </mask>
        <path fill="url(#b)" d="M11.723 31.258c-2.146 0-3.911 1.756-3.911 3.9a3.924 3.924 0 0 0 3.911 3.912c2.147 0 3.9-1.756 3.9-3.912a3.91 3.91 0 0 0-3.9-3.9zM0 0v3.912h3.912l7.028 14.841-2.738 4.694c-.19.58-.39 1.362-.39 1.943a3.924 3.924 0 0 0 3.911 3.912h23.435V25.39H12.505c-.2 0-.39-.19-.39-.39v-.19l1.755-3.32h14.46c1.553 0 2.728-.783 3.319-1.955l7.03-12.695c.39-.391.39-.591.39-.984 0-1.163-.78-1.944-1.955-1.944H8.202L6.45 0H0zm31.258 31.258c-2.146 0-3.912 1.756-3.912 3.9a3.924 3.924 0 0 0 3.912 3.912c2.147 0 3.9-1.756 3.9-3.912a3.91 3.91 0 0 0-3.9-3.9z" mask="url(#c)"/>
    </g>
</svg>
